<svg xmlns="http://www.w3.org/2000/svg" viewBox="0 0 1920 1080">
  <defs>
    <linearGradient id="lwall" x1="0" y1="0" x2="0" y2="1">
      <stop offset="0%" stop-color="#3e2723"/>
      <stop offset="100%" stop-color="#4e342e"/>
    </linearGradient>
    <linearGradient id="lshelf" x1="0" y1="0" x2="0" y2="1">
      <stop offset="0%" stop-color="#5d4037"/>
      <stop offset="100%" stop-color="#4e342e"/>
    </linearGradient>
    <radialGradient id="llamp" cx="50%" cy="15%" r="50%">
      <stop offset="0%" stop-color="#ffe0b2" stop-opacity="0.3"/>
      <stop offset="100%" stop-color="#4e342e" stop-opacity="0"/>
    </radialGradient>
  </defs>
  <rect width="1920" height="1080" fill="url(#lwall)"/>
  <rect width="1920" height="1080" fill="url(#llamp)"/>
  <!-- Shelves -->
  <rect x="100" y="120" width="500" height="12" fill="#6d4c41" rx="2"/>
  <rect x="100" y="320" width="500" height="12" fill="#6d4c41" rx="2"/>
  <rect x="100" y="520" width="500" height="12" fill="#6d4c41" rx="2"/>
  <rect x="700" y="120" width="520" height="12" fill="#6d4c41" rx="2"/>
  <rect x="700" y="320" width="520" height="12" fill="#6d4c41" rx="2"/>
  <rect x="700" y="520" width="520" height="12" fill="#6d4c41" rx="2"/>
  <rect x="1320" y="120" width="500" height="12" fill="#6d4c41" rx="2"/>
  <rect x="1320" y="320" width="500" height="12" fill="#6d4c41" rx="2"/>
  <rect x="1320" y="520" width="500" height="12" fill="#6d4c41" rx="2"/>
  <!-- Books row 1 -->
  <rect x="120" y="60" width="30" height="58" fill="#c62828" rx="1"/>
  <rect x="155" y="65" width="25" height="53" fill="#1565c0" rx="1"/>
  <rect x="185" y="55" width="28" height="63" fill="#2e7d32" rx="1"/>
  <rect x="218" y="62" width="22" height="56" fill="#f9a825" rx="1"/>
  <rect x="245" y="58" width="32" height="60" fill="#6a1b9a" rx="1"/>
  <rect x="282" y="64" width="26" height="54" fill="#00838f" rx="1"/>
  <rect x="313" y="56" width="30" height="62" fill="#d84315" rx="1"/>
  <rect x="348" y="66" width="24" height="52" fill="#283593" rx="1"/>
  <rect x="377" y="60" width="28" height="58" fill="#558b2f" rx="1"/>
  <rect x="410" y="63" width="22" height="55" fill="#ad1457" rx="1"/>
  <rect x="437" y="57" width="30" height="61" fill="#00695c" rx="1"/>
  <rect x="472" y="65" width="25" height="53" fill="#e65100" rx="1"/>
  <!-- Books row 2 (left) -->
  <rect x="120" y="260" width="28" height="58" fill="#0d47a1" rx="1"/>
  <rect x="153" y="265" width="32" height="53" fill="#880e4f" rx="1"/>
  <rect x="190" y="258" width="24" height="60" fill="#1b5e20" rx="1"/>
  <rect x="219" y="264" width="30" height="54" fill="#e65100" rx="1"/>
  <rect x="254" y="260" width="26" height="58" fill="#4a148c" rx="1"/>
  <rect x="285" y="266" width="28" height="52" fill="#006064" rx="1"/>
  <rect x="318" y="256" width="24" height="62" fill="#bf360c" rx="1"/>
  <rect x="347" y="262" width="32" height="56" fill="#1a237e" rx="1"/>
  <!-- Books row 1 (center) -->
  <rect x="720" y="58" width="26" height="60" fill="#b71c1c" rx="1"/>
  <rect x="751" y="64" width="30" height="54" fill="#0d47a1" rx="1"/>
  <rect x="786" y="56" width="24" height="62" fill="#33691e" rx="1"/>
  <rect x="815" y="62" width="28" height="56" fill="#f57f17" rx="1"/>
  <rect x="848" y="58" width="32" height="60" fill="#880e4f" rx="1"/>
  <rect x="885" y="66" width="24" height="52" fill="#004d40" rx="1"/>
  <rect x="914" y="55" width="28" height="63" fill="#e65100" rx="1"/>
  <rect x="947" y="63" width="30" height="55" fill="#311b92" rx="1"/>
  <rect x="982" y="57" width="26" height="61" fill="#00695c" rx="1"/>
  <rect x="1013" y="65" width="24" height="53" fill="#c62828" rx="1"/>
  <rect x="1042" y="60" width="32" height="58" fill="#1565c0" rx="1"/>
  <rect x="1079" y="56" width="28" height="62" fill="#558b2f" rx="1"/>
  <rect x="1112" y="64" width="24" height="54" fill="#6a1b9a" rx="1"/>
  <rect x="1141" y="58" width="30" height="60" fill="#ef6c00" rx="1"/>
  <!-- Books row 1 (right) -->
  <rect x="1340" y="60" width="28" height="58" fill="#4e342e" rx="1"/>
  <rect x="1373" y="56" width="24" height="62" fill="#1a237e" rx="1"/>
  <rect x="1402" y="64" width="32" height="54" fill="#880e4f" rx="1"/>
  <rect x="1439" y="58" width="26" height="60" fill="#2e7d32" rx="1"/>
  <rect x="1470" y="66" width="30" height="52" fill="#e65100" rx="1"/>
  <rect x="1505" y="55" width="24" height="63" fill="#006064" rx="1"/>
  <rect x="1534" y="62" width="28" height="56" fill="#ad1457" rx="1"/>
  <rect x="1567" y="57" width="32" height="61" fill="#0d47a1" rx="1"/>
  <rect x="1604" y="65" width="24" height="53" fill="#bf360c" rx="1"/>
  <rect x="1633" y="59" width="28" height="59" fill="#4a148c" rx="1"/>
  <rect x="1666" y="63" width="30" height="55" fill="#33691e" rx="1"/>
  <!-- Floor -->
  <rect x="0" y="800" width="1920" height="280" fill="#3e2723"/>
  <line x1="0" y1="800" x2="1920" y2="800" stroke="#5d4037" stroke-width="2"/>
  <!-- Warm light glow -->
  <ellipse cx="960" cy="0" rx="600" ry="400" fill="#ffe0b2" opacity="0.06"/>
</svg>
